<?xml version="1.0" encoding="UTF-8" ?>
<!DOCTYPE svg PUBLIC "-//W3C//DTD SVG 1.1//EN" "http://www.w3.org/Graphics/SVG/1.1/DTD/svg11.dtd">
<svg width="24pt" height="24pt" viewBox="0 0 24 24" version="1.1" xmlns="http://www.w3.org/2000/svg">
<g id="#008577ff">
<path fill="#008577" opacity="1.00" d=" M 13.99 1.78 C 16.98 0.32 17.97 3.00 17.41 5.54 C 14.90 6.13 11.92 4.45 13.99 1.78 Z" />
<path fill="#008577" opacity="1.00" d=" M 7.14 9.09 C 8.57 7.31 10.21 4.33 12.93 5.12 C 14.84 6.67 16.73 8.25 19.00 9.24 C 19.12 9.73 19.35 10.72 19.47 11.21 C 17.05 11.15 14.94 10.05 13.13 8.53 C 12.63 8.99 11.65 9.93 11.16 10.40 C 11.78 11.19 12.39 11.97 13.01 12.76 C 13.00 14.84 12.99 16.92 13.00 19.00 C 12.50 19.00 11.51 19.00 11.01 19.00 C 11.00 17.44 11.01 15.87 10.98 14.30 C 9.63 12.72 6.61 11.57 7.14 9.09 Z" />
<path fill="#008577" opacity="1.00" d=" M 0.00 15.17 C 1.15 13.01 3.37 11.43 5.92 11.99 C 10.26 12.26 11.51 18.65 8.25 21.08 C 5.52 23.13 1.41 21.96 0.00 18.87 L 0.00 15.17 M 3.27 14.14 C 1.46 15.16 1.00 18.03 2.69 19.39 C 4.51 21.48 8.55 19.87 8.30 17.05 C 8.58 14.52 5.32 12.73 3.27 14.14 Z" />
<path fill="#008577" opacity="1.00" d=" M 15.75 12.91 C 18.50 10.90 22.59 12.04 24.00 15.13 L 24.00 18.82 C 22.85 21.01 20.61 22.57 18.05 22.01 C 13.72 21.67 12.45 15.35 15.75 12.91 M 17.35 14.06 C 13.47 16.09 17.00 22.23 20.70 19.89 C 24.46 17.87 21.02 11.84 17.35 14.06 Z" />
</g>
</svg>
