<?xml version="1.0" encoding="UTF-8" ?>
<!DOCTYPE svg PUBLIC "-//W3C//DTD SVG 1.1//EN" "http://www.w3.org/Graphics/SVG/1.1/DTD/svg11.dtd">
<svg width="24pt" height="24pt" viewBox="0 0 24 24" version="1.1" xmlns="http://www.w3.org/2000/svg">
<g id="#008577ff">
<path fill="#008577" opacity="1.00" d=" M 6.78 4.18 C 9.74 0.61 16.30 1.34 18.30 5.57 C 19.92 8.52 18.84 11.95 17.43 14.74 C 16.16 13.52 14.91 12.29 13.69 11.03 C 15.73 8.47 12.63 5.11 10.10 7.44 C 8.99 6.36 7.89 5.26 6.78 4.18 Z" />
<path fill="#008577" opacity="1.00" d=" M 3.29 2.75 C 8.99 8.38 14.76 13.96 20.25 19.81 C 19.79 20.15 18.89 20.83 18.44 21.17 C 17.48 20.05 16.51 18.94 15.56 17.81 C 14.43 19.33 13.23 20.79 12.00 22.23 C 8.47 18.05 4.57 13.27 4.87 7.46 C 3.88 6.47 2.86 5.50 1.84 4.55 C 2.20 4.10 2.93 3.20 3.29 2.75 Z" />
</g>
</svg>
